<svg id="ewR7mbIKMFZ1" xmlns="http://www.w3.org/2000/svg" xmlns:xlink="http://www.w3.org/1999/xlink" viewBox="0 0 300 300" shape-rendering="geometricPrecision" text-rendering="geometricPrecision" project-id="4f1256caee2b4548acd550dbdb9dde30" export-id="0af98839c52b43f6a6b6c252daf2487b" cached="false" style="background-color:transparent"><ellipse rx="79.955138" ry="77.021305" transform="matrix(1.090756 0 0 1.119439 150 150)" fill="#232527" stroke-width="0"/><path d="M150,88.44903c-2.187404,0-4.76717,1.661817-4.76717,4.76717s2.722925,4.76717,4.76717,4.76717s4.76717-1.593979,4.76717-4.76717-2.579766-4.76717-4.76717-4.76717Z" fill="none" fill-rule="evenodd" stroke="#fff" stroke-width="1.5" stroke-dasharray="29.99"/><path d="M150,187.97538l-5.308809-.344735-3.792091-1.120392-3.10262-1.292759-2.844068-1.982229-2.154597-2.413149-1.637493-2.068413-1.419745-2.326964-.821036-3.016436-.775655-3.392963v-68.753771h-6.643057-6.089386v7.513265v59.829278l-8.515229,7.321791v-74.664334h-22.367971" transform="matrix(-1 0 0 1 300 0.000002)" fill="none" fill-rule="evenodd" stroke="#fff" stroke-width="1.5" stroke-dasharray="288.4"/><path d="M150,187.97538l-5.308809-.344735-3.792091-1.120392-3.10262-1.292759-2.844068-1.982229-2.154597-2.413149-1.637493-2.068413-1.419745-2.326964-.821036-3.016436-.775655-3.392963v-68.753771h-6.643057-6.089386v7.513265l-8.656773-7.513265h-23.205586" transform="translate(.000001 0.000002)" fill="none" fill-rule="evenodd" stroke="#fff" stroke-width="1.5" stroke-dasharray="154.98"/><path d="M150,198.447126l5.308809-.2958l3.792091-.517649l3.10262-.81345l3.409051-1.213574l2.491328-1.169399l1.718172-.944772l2.034043-1.25466q2.727988-2.045781,2.776816-2.045781t2.294922-2.216659l2.001953-2.226701l13.750213,11.884996h22.791739v-96.974296" fill="none" fill-rule="evenodd" stroke="#fff" stroke-width="1.5" stroke-dasharray="170.65"/><path d="M150,198.447125l-4.76717-.2958-3.867531-.517649-3.568819-.81345-2.046065-.739499-2.952601-.961348-3.057238-1.626898-2.795509-2.070597-2.366396-2.070597-1.848748-1.720641-1.783356-2.413151q-1.754598-2.399818-1.711803-2.399818t-1.583418-3.107661l-1.127383-3.283276-.628816-3.016436-.483705-3.392963v-38.225112-1.059036l-8.656773-7.329343v74.229826h-22.608711v-96.370106" transform="translate(0 0.000001)" fill="none" fill-rule="evenodd" stroke="#fff" stroke-width="1.5" stroke-dasharray="293.49"/></svg>
